<svg xmlns="http://www.w3.org/2000/svg" viewBox="0 0 128 128"><defs><style>.cls-1{isolation:isolate;}.cls-2{mix-blend-mode:multiply;}.Graphic-Style-2,.cls-3{fill:#302a27;}.cls-4{fill:#c49b83;}.cls-5{fill:#78c17b;}.cls-6{fill:#f9ae35;}.cls-7{fill:#fccc33;}.cls-8{opacity:0.12;}.Graphic-Style-2,.cls-9{stroke:#302a27;stroke-linecap:round;stroke-linejoin:round;stroke-width:2px;}.cls-9{fill:none;}.cls-10{opacity:0.24;}</style></defs><title>sub-sandwich</title><g class="cls-1"><g id="icons" class="cls-2"><path class="cls-3" d="M22,90c-3.2,0-5.964,0-7.313-2.457A6.448,6.448,0,0,1,14,84.36a8.1,8.1,0,0,1,4.353-7.233,6.968,6.968,0,0,1-1.1-5.982c-.089-.024-.177-.049-.266-.075a4.2,4.2,0,0,1-2.022-1.2,4.322,4.322,0,0,1-.948-2.557,8.776,8.776,0,0,1,.729-4.084q.155-.377.349-.758a5.266,5.266,0,0,1-2.05-3.615c-.3-2.357.88-5.107,3.5-8.156,4.36-5.1,10.945-10.667,26.7-13.24a125.884,125.884,0,0,1,18.69-1.447C62.61,36,63.3,36,64,36c4.548,0,8.829.164,12.725.487l.432.038a87.128,87.128,0,0,1,13.366,2.1c11.9,2.926,17.441,7.988,20.937,12.07,2.858,3.339,4,6.305,3.377,8.816a5.263,5.263,0,0,1-1.559,2.628,7.974,7.974,0,0,1,.6,1.9,6.316,6.316,0,0,1-.807,4.574,6.113,6.113,0,0,1-4.273,2.708,7,7,0,0,1-.721,5.14A8.186,8.186,0,0,1,114,84.36C114,90,109.933,90,106,90Z"/><path class="cls-3" d="M64,38c4.65,0,8.82.17,12.56.48.15.01.31.03.46.04a84.36,84.36,0,0,1,13.02,2.05c10.82,2.66,16.15,7.05,19.9,11.43,4.65,5.43,3.29,8.45.59,9.53a6.062,6.062,0,0,1,1.38,2.87,4.335,4.335,0,0,1-.52,3.14,4.478,4.478,0,0,1-3.922,1.9,6.547,6.547,0,0,1-1.118-.1,9.742,9.742,0,0,1-1.39-.35,4.271,4.271,0,0,1,.57.48A4.992,4.992,0,0,1,102,78h3a3.942,3.942,0,0,1,.49.02c3.75.21,6.51,2.86,6.51,6.34C112,88,110,88,106,88H22c-2.92,0-4.78,0-5.56-1.42A4.561,4.561,0,0,1,16,84.36C16,80.73,19,78,23,78h1a5.019,5.019,0,0,1-5-5,4.914,4.914,0,0,1,1.33-3.37,12.184,12.184,0,0,1-2.78-.48,2.272,2.272,0,0,1-1.08-.6,2.418,2.418,0,0,1-.46-1.4,6.723,6.723,0,0,1,.57-3.13,10.263,10.263,0,0,1,1.37-2.32,3.735,3.735,0,0,1-2.92-3.08c-.2-1.59.59-3.78,3.03-6.62,4.35-5.09,10.81-10.17,25.51-12.57a122.77,122.77,0,0,1,18.39-1.42h.01C62.63,38,63.31,38,64,38m0-4c-.7,0-1.4,0-2.068.01h-.016a127.888,127.888,0,0,0-18.992,1.472c-16.491,2.692-23.575,8.853-27.9,13.919-3,3.487-4.33,6.759-3.958,9.718a7.157,7.157,0,0,0,1.646,3.81,10.645,10.645,0,0,0-.689,4.471l0,.069a6.326,6.326,0,0,0,1.422,3.7,5.639,5.639,0,0,0,1.574,1.252Q15,72.708,15,73a8.942,8.942,0,0,0,.721,3.532A10.056,10.056,0,0,0,12,84.36a8.375,8.375,0,0,0,.947,4.168C14.853,92,18.65,92,22,92h84c3.74,0,10,0,10-7.64a10.148,10.148,0,0,0-5.333-8.929A8.976,8.976,0,0,0,111,73q0-.107,0-.214a7.846,7.846,0,0,0,3.775-3.111,8.3,8.3,0,0,0,1.071-6,9.568,9.568,0,0,0-.268-1.107,7.23,7.23,0,0,0,1.2-2.579c.78-3.173-.5-6.738-3.8-10.594-3.69-4.309-9.523-9.649-21.983-12.713a89.018,89.018,0,0,0-13.629-2.151l-.081-.006-.111-.01c-.1-.01-.208-.02-.31-.027C72.92,34.165,68.591,34,64,34Z"/><g id="_Group_" data-name="&lt;Group&gt;"><path class="cls-4" d="M107,73a5.015,5.015,0,0,1-5,5H93.56l3.79-3.19,7.11-5.98c.16.06.33.11.5.16a4.265,4.265,0,0,1,.57.48A4.965,4.965,0,0,1,107,73Z"/><polygon class="cls-4" points="86.06 78 67.56 78 69.89 76.04 76.35 70.6 82.33 75.16 86.06 78"/><polygon class="cls-4" points="60.44 78 41.56 78 44.73 75.33 51 70.05 55.52 73.86 55.53 73.86 60.44 78"/><path class="cls-4" d="M34.44,78H24a5.019,5.019,0,0,1-5-5,4.914,4.914,0,0,1,1.33-3.37,19.141,19.141,0,0,0,3.92-.21l5.49,4.62Z"/><path class="cls-5" d="M84.48,62h23.47a6.914,6.914,0,0,0,2.58-.47,6.062,6.062,0,0,1,1.38,2.87,4.334,4.334,0,0,1-.52,3.14,4.851,4.851,0,0,1-5.04,1.8,9.752,9.752,0,0,1-1.39-.35c-.17-.05-.34-.1-.5-.16-1.16-.4-2.3-.9-3.48-1.21-6.63-1.75-13.64,2.44-20.32.96a7.934,7.934,0,0,0,1.48-.68A4.651,4.651,0,0,0,84.48,62Z"/><path class="cls-5" d="M84.8,63.64a5.159,5.159,0,0,1-2.66,4.26,7.934,7.934,0,0,1-1.48.68h-.01c-.06-.01-.11-.03-.17-.04q-.63-.15-1.26-.36c-1.87-.57-3.73-1.3-5.59-.84a5.736,5.736,0,0,0-1.05.38c-.76.35-1.48.81-2.23,1.18a10.826,10.826,0,0,1-9.55-.02c-1.38-.69-2.63-1.68-4.03-2.34a10.175,10.175,0,0,0-1.08-.44,13.659,13.659,0,0,0-8.91.4c-.6.22-1.2.46-1.78.73a14.777,14.777,0,0,1-4.11,1.55c-1.68.22-3.35-.35-5.03-.58-3.85-.53-7.76.7-11.61,1.22a19.141,19.141,0,0,1-3.92.21,12.182,12.182,0,0,1-2.78-.48,2.272,2.272,0,0,1-1.08-.6,2.418,2.418,0,0,1-.46-1.4,6.723,6.723,0,0,1,.57-3.13,10.265,10.265,0,0,1,1.37-2.32,7.3,7.3,0,0,0,2.1.3H84.48A5.136,5.136,0,0,1,84.8,63.64Z"/><path class="cls-6" d="M73.63,67.34c1.86-.46,3.72.27,5.59.84q.63.21,1.26.36c.06.01.11.03.17.04h.01c6.68,1.48,13.69-2.71,20.32-.96,1.18.31,2.32.81,3.48,1.21l-7.11,5.98L93.56,78,90,81l-3.94-3-3.73-2.84L76.35,70.6l-3.77-2.88A5.736,5.736,0,0,1,73.63,67.34Z"/><path class="cls-6" d="M51,70.05l-6.27,5.28L41.56,78,38,81l-3.56-3-4.7-3.96-5.49-4.62c3.85-.52,7.76-1.75,11.61-1.22,1.68.23,3.35.8,5.03.58A14.777,14.777,0,0,0,45,67.23c.58-.27,1.18-.51,1.78-.73Z"/><path class="cls-6" d="M46.78,66.5a13.659,13.659,0,0,1,8.91-.4,10.175,10.175,0,0,1,1.08.44c1.4.66,2.65,1.65,4.03,2.34a10.826,10.826,0,0,0,9.55.02c.75-.37,1.47-.83,2.23-1.18l3.77,2.88-6.46,5.44L67.56,78,64,81l-3.56-3-4.91-4.14h-.01L51,70.05Z"/><path class="cls-7" d="M112,84.36C112,88,110,88,106,88H22c-2.92,0-4.78,0-5.56-1.42A4.561,4.561,0,0,1,16,84.36C16,80.73,19,78,23,78H34.44L38,81l3.56-3H60.44L64,81l3.56-3h18.5L90,81l3.56-3H105a3.934,3.934,0,0,1,.49.02C109.24,78.23,112,80.88,112,84.36Z"/><path class="cls-7" d="M77.02,38.52a84.364,84.364,0,0,1,13.02,2.05c10.82,2.66,16.15,7.05,19.9,11.43,4.65,5.43,3.29,8.45.59,9.53a6.914,6.914,0,0,1-2.58.47H20.05a7.3,7.3,0,0,1-2.1-.3,3.735,3.735,0,0,1-2.92-3.08c-.2-1.59.59-3.78,3.03-6.62,4.35-5.09,10.81-10.17,25.51-12.57a122.778,122.778,0,0,1,18.39-1.42h.01C62.63,38,63.31,38,64,38c4.65,0,8.82.17,12.56.48C76.71,38.49,76.87,38.51,77.02,38.52Z"/><g class="cls-8"><path class="Graphic-Style-2" d="M112,84.36C112,88,110,88,106,88H22c-2.92,0-4.78,0-5.56-1.42,1.6-2.76,7.02-3.01,9.88-2.9,4.74.18,9.38,1.49,14.12,1.86,8.81.7,17.6-1.84,26.43-1.44,4.72.21,9.37,1.26,14.08,1.68a104.77,104.77,0,0,0,12.15.11l9.33-.27a7.731,7.731,0,0,0,3.02-.49,2.657,2.657,0,0,0,1.68-2.37c-.08-1.66-2.19-2.76-2.09-4.43.15-.11.3-.21.45-.31C109.24,78.23,112,80.88,112,84.36Z"/><path class="Graphic-Style-2" d="M29.74,74.04,34.44,78H24a5,5,0,0,1-4.44-2.75C21.93,73.36,26.52,73.66,29.74,74.04Z"/><path class="Graphic-Style-2" d="M55.53,73.86,60.44,78H41.56l3.17-2.67a19.294,19.294,0,0,0,2.82-.47c1.32-.33,2.62-.81,3.97-1.01a15.822,15.822,0,0,1,3.89,0c.04,0,.07.01.11.01Z"/><path class="Graphic-Style-2" d="M86.06,78H67.56l2.33-1.96a29.089,29.089,0,0,0,4.76.06c2.09-.15,4.16-.57,6.24-.81.48-.05.96-.1,1.44-.13Z"/><path class="Graphic-Style-2" d="M106.67,74.72A4.989,4.989,0,0,1,102,78H93.56l3.79-3.19c2.62-.04,5.25-.07,7.87-.11C105.7,74.69,106.19,74.69,106.67,74.72Z"/><path class="Graphic-Style-2" d="M110.53,61.53a6.914,6.914,0,0,1-2.58.47H20.05a7.3,7.3,0,0,1-2.1-.3,3.735,3.735,0,0,1-2.92-3.08,28.735,28.735,0,0,1,10.46-2.41c5.25-.29,10.5.45,15.75.82a112.97,112.97,0,0,0,15.72,0c5.1-.35,10.2-1.05,15.29-.62,3.25.28,6.45,1.01,9.69,1.39a70.234,70.234,0,0,0,16.26-.37c2.37-.27,5.39-1.31,5.31-3.7-.05-1.54-1.49-2.64-2.82-3.42a40.179,40.179,0,0,0-10.26-4.18c-5.01-1.26-10.99-2.03-13.54-6.53a2.135,2.135,0,0,1-.34-1.02.34.34,0,0,1,.01-.1c20.4,1.69,28.32,7.61,33.38,13.52C114.59,57.43,113.23,60.45,110.53,61.53Z"/><path class="Graphic-Style-2" d="M111.91,64.4a47.776,47.776,0,0,1-10.42-.26,33.745,33.745,0,0,0-6.24-.61,48.136,48.136,0,0,0-5.44.88,52.018,52.018,0,0,1-11.23.26c-14.9-.74-29.85-1.69-44.72-.56-5.31.4-10.66,1.06-15.91.23a10.981,10.981,0,0,1-1.37-.32,10.264,10.264,0,0,1,1.37-2.32,7.3,7.3,0,0,0,2.1.3h87.9a6.914,6.914,0,0,0,2.58-.47A6.062,6.062,0,0,1,111.91,64.4Z"/></g><path class="cls-9" d="M61.97,38.01C62.63,38,63.31,38,64,38c4.65,0,8.82.17,12.56.48.15.01.31.03.46.04a84.364,84.364,0,0,1,13.02,2.05c10.82,2.66,16.15,7.05,19.9,11.43,4.65,5.43,3.29,8.45.59,9.53"/><path class="cls-9" d="M17.95,61.7a3.735,3.735,0,0,1-2.92-3.08c-.2-1.59.59-3.78,3.03-6.62,4.35-5.09,10.81-10.17,25.51-12.57a122.778,122.778,0,0,1,18.39-1.42"/><path class="cls-9" d="M93.56,78H105a3.934,3.934,0,0,1,.49.02c3.75.21,6.51,2.86,6.51,6.34C112,88,110,88,106,88H22c-2.92,0-4.78,0-5.56-1.42A4.561,4.561,0,0,1,16,84.36C16,80.73,19,78,23,78H34.44"/><line class="cls-9" x1="67.56" y1="78" x2="86.06" y2="78"/><line class="cls-9" x1="41.56" y1="78" x2="60.44" y2="78"/><path class="cls-9" d="M80.65,68.58c-.06-.01-.11-.03-.17-.04q-.63-.15-1.26-.36c-1.87-.57-3.73-1.3-5.59-.84a5.736,5.736,0,0,0-1.05.38c-.76.35-1.48.81-2.23,1.18a10.826,10.826,0,0,1-9.55-.02c-1.38-.69-2.63-1.68-4.03-2.34a10.175,10.175,0,0,0-1.08-.44,13.659,13.659,0,0,0-8.91.4c-.6.22-1.2.46-1.78.73a14.777,14.777,0,0,1-4.11,1.55c-1.68.22-3.35-.35-5.03-.58-3.85-.53-7.76.7-11.61,1.22a19.141,19.141,0,0,1-3.92.21,12.182,12.182,0,0,1-2.78-.48,2.272,2.272,0,0,1-1.08-.6,2.418,2.418,0,0,1-.46-1.4,6.723,6.723,0,0,1,.57-3.13,10.265,10.265,0,0,1,1.37-2.32,7.3,7.3,0,0,0,2.1.3h87.9a6.914,6.914,0,0,0,2.58-.47,6.062,6.062,0,0,1,1.38,2.87,4.334,4.334,0,0,1-.52,3.14,4.851,4.851,0,0,1-5.04,1.8,9.752,9.752,0,0,1-1.39-.35c-.17-.05-.34-.1-.5-.16-1.16-.4-2.3-.9-3.48-1.21-6.63-1.75-13.64,2.44-20.32.96"/><path class="cls-9" d="M80.65,68.58h.01a7.934,7.934,0,0,0,1.48-.68A4.651,4.651,0,0,0,84.48,62"/><path class="cls-9" d="M24,78a5.019,5.019,0,0,1-5-5,4.914,4.914,0,0,1,1.33-3.37"/><path class="cls-9" d="M104.96,68.99a4.265,4.265,0,0,1,.57.48A4.992,4.992,0,0,1,102,78"/><polyline class="cls-9" points="24.25 69.42 29.74 74.04 34.44 78 38 81 41.56 78 44.73 75.33 51 70.05"/><polyline class="cls-9" points="46.78 66.5 51 70.05 55.52 73.86 55.53 73.86 60.44 78 64 81 67.56 78 69.89 76.04 76.35 70.6"/><polyline class="cls-9" points="72.58 67.72 76.35 70.6 82.33 75.16 86.06 78 90 81 93.56 78 97.35 74.81 104.46 68.83"/><g class="cls-10"><path class="cls-9" d="M83,53a20.287,20.287,0,0,1,7.04-12.43"/><path class="cls-9" d="M67,53A20.238,20.238,0,0,1,77.02,38.52"/><path class="cls-9" d="M51,53A20.293,20.293,0,0,1,61.96,38.01h.01"/><path class="cls-9" d="M35,53a20.228,20.228,0,0,1,8.57-13.57"/></g></g></g></g></svg>